<?xml version="1.0" standalone="yes"?>
<svg width="1280" height="720" version="1.1" xmlns="http://www.w3.org/2000/svg">
<!--
 decred.org/januspuzzle
________________________
  Puzzle by Zden/Satori
 Art by Diego Rodriguez
Concept by @coin_artist 
-->
<line x1="640.000" y1="520.000" x2="540.856" y2="533.053" style="stroke:yellow;stroke-width:1;stroke-linecap:round;opacity:1"/>
<text x="588.428" y="529.526" fill="red"> </text><text x="638.000" y="521.000" fill="black">.</text><line x1="615.214" y1="523.263" x2="584.776" y2="562.931" style="stroke:black;stroke-width:1;stroke-linecap:round;opacity:1"/>
<text x="597.995" y="546.097" fill="red"> </text><text x="613.214" y="524.263" fill="orange">.</text><line x1="584.776" y1="562.931" x2="541.475" y2="587.931" style="stroke:yellow;stroke-width:1;stroke-linecap:round;opacity:1"/>
<text x="561.125" y="578.431" fill="red">|</text><text x="582.776" y="563.931" fill="black">.</text><line x1="541.475" y1="587.931" x2="522.340" y2="634.125" style="stroke:black;stroke-width:1;stroke-linecap:round;opacity:1"/>
<text x="529.907" y="614.028" fill="red">||</text><text x="539.475" y="588.931" fill="orange">.</text><line x1="565.642" y1="529.789" x2="517.345" y2="516.849" style="stroke:green;stroke-width:1;stroke-linecap:round;opacity:1"/>
<text x="539.494" y="526.319" fill="red">|</text><text x="563.642" y="530.789" fill="black">.</text><line x1="517.345" y1="516.849" x2="467.345" y2="516.849" style="stroke:yellow;stroke-width:1;stroke-linecap:round;opacity:1"/>
<text x="490.345" y="519.849" fill="red"> </text><text x="515.345" y="517.849" fill="orange">.</text><line x1="467.345" y1="516.849" x2="419.049" y2="503.908" style="stroke:yellow;stroke-width:1;stroke-linecap:round;opacity:1"/>
<text x="441.197" y="513.378" fill="red"> </text><text x="465.345" y="517.849" fill="black">.</text><line x1="540.856" y1="533.053" x2="441.711" y2="546.105" style="stroke:green;stroke-width:1;stroke-linecap:round;opacity:1"/>
<text x="489.283" y="542.579" fill="red">|</text><text x="538.856" y="534.053" fill="black">.</text><line x1="516.069" y1="536.316" x2="496.935" y2="582.510" style="stroke:black;stroke-width:1;stroke-linecap:round;opacity:1"/>
<text x="504.502" y="562.413" fill="red">||</text><text x="514.069" y="537.316" fill="orange">.</text><line x1="496.935" y1="582.510" x2="457.268" y2="612.948" style="stroke:yellow;stroke-width:1;stroke-linecap:round;opacity:1"/>
<text x="475.101" y="600.729" fill="red">|</text><text x="494.935" y="583.510" fill="black">.</text><line x1="457.268" y1="612.948" x2="438.133" y2="659.142" style="stroke:green;stroke-width:1;stroke-linecap:round;opacity:1"/>
<text x="445.700" y="639.045" fill="red"> </text><text x="455.268" y="613.948" fill="orange">.</text><line x1="466.497" y1="542.842" x2="416.497" y2="542.842" style="stroke:yellow;stroke-width:1;stroke-linecap:round;opacity:1"/>
<text x="439.497" y="545.842" fill="red"> </text><text x="464.497" y="543.842" fill="orange">.</text><line x1="416.497" y1="542.842" x2="368.201" y2="529.901" style="stroke:green;stroke-width:1;stroke-linecap:round;opacity:1"/>
<text x="390.349" y="539.372" fill="red">|</text><text x="414.497" y="543.842" fill="black">.</text><line x1="368.201" y1="529.901" x2="318.629" y2="523.375" style="stroke:black;stroke-width:1;stroke-linecap:round;opacity:1"/>
<text x="341.415" y="529.638" fill="red"> </text><text x="366.201" y="530.901" fill="orange">.</text><line x1="441.711" y1="546.105" x2="345.118" y2="571.987" style="stroke:black;stroke-width:1;stroke-linecap:round;opacity:1"/>
<text x="391.415" y="562.046" fill="red"> </text><text x="439.711" y="547.105" fill="orange">.</text><line x1="417.563" y1="552.576" x2="387.125" y2="592.243" style="stroke:black;stroke-width:1;stroke-linecap:round;opacity:1"/>
<text x="400.344" y="575.410" fill="red"> </text><text x="415.563" y="553.576" fill="black">.</text><line x1="387.125" y1="592.243" x2="374.184" y2="640.540" style="stroke:yellow;stroke-width:1;stroke-linecap:round;opacity:1"/>
<text x="378.654" y="619.391" fill="red">|</text><text x="385.125" y="593.243" fill="orange">.</text><line x1="374.184" y1="640.540" x2="338.829" y2="675.895" style="stroke:green;stroke-width:1;stroke-linecap:round;opacity:1"/>
<text x="354.506" y="661.217" fill="red"> </text><text x="372.184" y="641.540" fill="black">.</text><line x1="369.267" y1="565.517" x2="319.267" y2="565.517" style="stroke:black;stroke-width:1;stroke-linecap:round;opacity:1"/>
<text x="342.267" y="568.517" fill="red"> </text><text x="367.267" y="566.517" fill="orange">.</text><line x1="319.267" y1="565.517" x2="269.694" y2="558.990" style="stroke:black;stroke-width:1;stroke-linecap:round;opacity:1"/>
<text x="292.480" y="565.254" fill="red"> </text><text x="317.267" y="566.517" fill="black">.</text><line x1="269.694" y1="558.990" x2="220.122" y2="552.464" style="stroke:black;stroke-width:1;stroke-linecap:round;opacity:1"/>
<text x="242.908" y="558.727" fill="red"> </text><text x="267.694" y="559.990" fill="black">.</text><line x1="640.000" y1="520.000" x2="569.289" y2="449.289" style="stroke:green;stroke-width:1;stroke-linecap:round;opacity:1"/>
<text x="602.645" y="487.645" fill="red"> </text><text x="638.000" y="521.000" fill="black">.</text><line x1="622.322" y1="502.322" x2="576.128" y2="483.188" style="stroke:black;stroke-width:1;stroke-linecap:round;opacity:1"/>
<text x="597.225" y="495.755" fill="red">||</text><text x="620.322" y="503.322" fill="black">.</text><line x1="576.128" y1="483.188" x2="526.556" y2="476.662" style="stroke:black;stroke-width:1;stroke-linecap:round;opacity:1"/>
<text x="549.342" y="482.925" fill="red"> </text><text x="574.128" y="484.188" fill="black">.</text><line x1="526.556" y1="476.662" x2="478.260" y2="489.603" style="stroke:yellow;stroke-width:1;stroke-linecap:round;opacity:1"/>
<text x="500.408" y="486.132" fill="red">|</text><text x="524.556" y="477.662" fill="orange">.</text><line x1="586.967" y1="466.967" x2="580.441" y2="417.395" style="stroke:yellow;stroke-width:1;stroke-linecap:round;opacity:1"/>
<text x="581.704" y="445.181" fill="red">||</text><text x="584.967" y="467.967" fill="black">.</text><line x1="580.441" y1="417.395" x2="555.441" y2="374.093" style="stroke:black;stroke-width:1;stroke-linecap:round;opacity:1"/>
<text x="565.941" y="398.744" fill="red"> </text><text x="578.441" y="418.395" fill="orange">.</text><line x1="555.441" y1="374.093" x2="536.307" y2="327.900" style="stroke:black;stroke-width:1;stroke-linecap:round;opacity:1"/>
<text x="543.874" y="353.996" fill="red"> </text><text x="553.441" y="375.093" fill="black">.</text><line x1="569.289" y1="449.289" x2="472.697" y2="423.407" style="stroke:yellow;stroke-width:1;stroke-linecap:round;opacity:1"/>
<text x="518.993" y="439.348" fill="red">|</text><text x="567.289" y="450.289" fill="orange">.</text><line x1="545.141" y1="442.819" x2="495.569" y2="449.345" style="stroke:black;stroke-width:1;stroke-linecap:round;opacity:1"/>
<text x="518.355" y="449.082" fill="red">||</text><text x="543.141" y="443.819" fill="black">.</text><line x1="495.569" y1="449.345" x2="455.901" y2="479.783" style="stroke:yellow;stroke-width:1;stroke-linecap:round;opacity:1"/>
<text x="473.735" y="467.564" fill="red"> </text><text x="493.569" y="450.345" fill="orange">.</text><line x1="455.901" y1="479.783" x2="412.600" y2="504.783" style="stroke:black;stroke-width:1;stroke-linecap:round;opacity:1"/>
<text x="432.251" y="495.283" fill="red"> </text><text x="453.901" y="480.783" fill="orange">.</text><line x1="496.845" y1="429.878" x2="466.407" y2="390.210" style="stroke:yellow;stroke-width:1;stroke-linecap:round;opacity:1"/>
<text x="479.626" y="413.044" fill="red">|</text><text x="494.845" y="430.878" fill="black">.</text><line x1="466.407" y1="390.210" x2="418.110" y2="377.269" style="stroke:green;stroke-width:1;stroke-linecap:round;opacity:1"/>
<text x="440.259" y="386.740" fill="red"> </text><text x="464.407" y="391.210" fill="orange">.</text><line x1="418.110" y1="377.269" x2="378.443" y2="346.831" style="stroke:black;stroke-width:1;stroke-linecap:round;opacity:1"/>
<text x="396.277" y="365.050" fill="red"> </text><text x="416.110" y="378.269" fill="black">.</text><line x1="472.697" y1="423.407" x2="393.361" y2="362.531" style="stroke:black;stroke-width:1;stroke-linecap:round;opacity:1"/>
<text x="431.029" y="395.969" fill="red">|</text><text x="470.697" y="424.407" fill="black">.</text><line x1="452.863" y1="408.188" x2="403.291" y2="414.715" style="stroke:black;stroke-width:1;stroke-linecap:round;opacity:1"/>
<text x="426.077" y="414.452" fill="red"> </text><text x="450.863" y="409.188" fill="orange">.</text><line x1="403.291" y1="414.715" x2="353.291" y2="414.715" style="stroke:black;stroke-width:1;stroke-linecap:round;opacity:1"/>
<text x="376.291" y="417.715" fill="red">|</text><text x="401.291" y="415.715" fill="black">.</text><line x1="353.291" y1="414.715" x2="303.291" y2="414.715" style="stroke:black;stroke-width:1;stroke-linecap:round;opacity:1"/>
<text x="326.291" y="417.715" fill="red">|</text><text x="351.291" y="415.715" fill="black">.</text><line x1="413.195" y1="377.750" x2="400.254" y2="329.454" style="stroke:green;stroke-width:1;stroke-linecap:round;opacity:1"/>
<text x="404.725" y="356.602" fill="red">|</text><text x="411.195" y="378.750" fill="black">.</text><line x1="400.254" y1="329.454" x2="360.587" y2="299.016" style="stroke:yellow;stroke-width:1;stroke-linecap:round;opacity:1"/>
<text x="378.420" y="317.235" fill="red">|</text><text x="398.254" y="330.454" fill="orange">.</text><line x1="360.587" y1="299.016" x2="335.587" y2="255.715" style="stroke:black;stroke-width:1;stroke-linecap:round;opacity:1"/>
<text x="346.087" y="280.365" fill="red">|</text><text x="358.587" y="300.016" fill="black">.</text><line x1="640.000" y1="520.000" x2="653.053" y2="420.855" style="stroke:black;stroke-width:1;stroke-linecap:round;opacity:1"/>
<text x="644.526" y="473.428" fill="red">||</text><text x="638.000" y="521.000" fill="black">.</text><line x1="643.263" y1="495.214" x2="612.825" y2="455.546" style="stroke:black;stroke-width:1;stroke-linecap:round;opacity:1"/>
<text x="626.044" y="478.380" fill="red"> </text><text x="641.263" y="496.214" fill="orange">.</text><line x1="612.825" y1="455.546" x2="599.884" y2="407.250" style="stroke:yellow;stroke-width:1;stroke-linecap:round;opacity:1"/>
<text x="604.355" y="434.398" fill="red">|</text><text x="610.825" y="456.546" fill="black">.</text><line x1="599.884" y1="407.250" x2="560.216" y2="376.812" style="stroke:black;stroke-width:1;stroke-linecap:round;opacity:1"/>
<text x="578.050" y="395.031" fill="red">||</text><text x="597.884" y="408.250" fill="orange">.</text><line x1="649.789" y1="445.642" x2="668.924" y2="399.448" style="stroke:black;stroke-width:1;stroke-linecap:round;opacity:1"/>
<text x="657.357" y="425.545" fill="red"> </text><text x="647.789" y="446.642" fill="orange">.</text><line x1="668.924" y1="399.448" x2="704.279" y2="364.092" style="stroke:green;stroke-width:1;stroke-linecap:round;opacity:1"/>
<text x="684.601" y="384.770" fill="red">|</text><text x="666.924" y="400.448" fill="black">.</text><line x1="704.279" y1="364.092" x2="739.634" y2="328.737" style="stroke:green;stroke-width:1;stroke-linecap:round;opacity:1"/>
<text x="719.957" y="349.415" fill="red">|</text><text x="702.279" y="365.092" fill="black">.</text><line x1="653.053" y1="420.855" x2="653.053" y2="320.855" style="stroke:yellow;stroke-width:1;stroke-linecap:round;opacity:1"/>
<text x="651.053" y="373.855" fill="red">|</text><text x="651.053" y="421.855" fill="black">.</text><line x1="653.053" y1="395.855" x2="633.918" y2="349.662" style="stroke:yellow;stroke-width:1;stroke-linecap:round;opacity:1"/>
<text x="641.486" y="375.759" fill="red">||</text><text x="651.053" y="396.855" fill="black">.</text><line x1="633.918" y1="349.662" x2="598.563" y2="314.306" style="stroke:black;stroke-width:1;stroke-linecap:round;opacity:1"/>
<text x="614.241" y="334.984" fill="red"> </text><text x="631.918" y="350.662" fill="orange">.</text><line x1="598.563" y1="314.306" x2="568.125" y2="274.639" style="stroke:black;stroke-width:1;stroke-linecap:round;opacity:1"/>
<text x="581.344" y="297.472" fill="red"> </text><text x="596.563" y="315.306" fill="black">.</text><line x1="653.053" y1="345.855" x2="683.491" y2="306.188" style="stroke:yellow;stroke-width:1;stroke-linecap:round;opacity:1"/>
<text x="666.272" y="329.022" fill="red"> </text><text x="651.053" y="346.855" fill="black">.</text><line x1="683.491" y1="306.188" x2="690.017" y2="256.616" style="stroke:yellow;stroke-width:1;stroke-linecap:round;opacity:1"/>
<text x="684.754" y="284.402" fill="red"> </text><text x="681.491" y="307.188" fill="orange">.</text><line x1="690.017" y1="256.616" x2="702.958" y2="208.319" style="stroke:black;stroke-width:1;stroke-linecap:round;opacity:1"/>
<text x="694.487" y="235.467" fill="red"> </text><text x="688.017" y="257.616" fill="orange">.</text><line x1="653.053" y1="320.855" x2="627.171" y2="224.263" style="stroke:black;stroke-width:1;stroke-linecap:round;opacity:1"/>
<text x="638.112" y="275.559" fill="red"> </text><text x="651.053" y="321.855" fill="orange">.</text><line x1="646.582" y1="296.707" x2="616.144" y2="257.040" style="stroke:green;stroke-width:1;stroke-linecap:round;opacity:1"/>
<text x="629.363" y="279.874" fill="red"> </text><text x="644.582" y="297.707" fill="black">.</text><line x1="616.144" y1="257.040" x2="576.476" y2="226.602" style="stroke:green;stroke-width:1;stroke-linecap:round;opacity:1"/>
<text x="594.310" y="244.821" fill="red">|</text><text x="614.144" y="258.040" fill="black">.</text><line x1="576.476" y1="226.602" x2="533.175" y2="201.602" style="stroke:black;stroke-width:1;stroke-linecap:round;opacity:1"/>
<text x="552.826" y="217.102" fill="red"> </text><text x="574.476" y="227.602" fill="orange">.</text><line x1="633.641" y1="248.411" x2="652.775" y2="202.217" style="stroke:green;stroke-width:1;stroke-linecap:round;opacity:1"/>
<text x="641.208" y="228.314" fill="red"> </text><text x="631.641" y="249.411" fill="black">.</text><line x1="652.775" y1="202.217" x2="659.302" y2="152.645" style="stroke:green;stroke-width:1;stroke-linecap:round;opacity:1"/>
<text x="654.038" y="180.431" fill="red">|</text><text x="650.775" y="203.217" fill="black">.</text><line x1="659.302" y1="152.645" x2="652.775" y2="103.073" style="stroke:yellow;stroke-width:1;stroke-linecap:round;opacity:1"/>
<text x="654.038" y="130.859" fill="red"> </text><text x="657.302" y="153.645" fill="orange">.</text><line x1="640.000" y1="520.000" x2="719.335" y2="459.124" style="stroke:black;stroke-width:1;stroke-linecap:round;opacity:1"/>
<text x="677.668" y="492.562" fill="red">||</text><text x="638.000" y="521.000" fill="black">.</text><line x1="659.834" y1="504.781" x2="672.775" y2="456.485" style="stroke:yellow;stroke-width:1;stroke-linecap:round;opacity:1"/>
<text x="664.304" y="483.633" fill="red"> </text><text x="657.834" y="505.781" fill="black">.</text><line x1="672.775" y1="456.485" x2="685.716" y2="408.188" style="stroke:green;stroke-width:1;stroke-linecap:round;opacity:1"/>
<text x="677.245" y="435.336" fill="red">|</text><text x="670.775" y="457.485" fill="black">.</text><line x1="685.716" y1="408.188" x2="692.242" y2="358.616" style="stroke:black;stroke-width:1;stroke-linecap:round;opacity:1"/>
<text x="686.979" y="386.402" fill="red"> </text><text x="683.716" y="409.188" fill="orange">.</text><line x1="699.501" y1="474.343" x2="749.501" y2="474.343" style="stroke:green;stroke-width:1;stroke-linecap:round;opacity:1"/>
<text x="722.501" y="477.343" fill="red">|</text><text x="697.501" y="475.343" fill="black">.</text><line x1="749.501" y1="474.343" x2="792.803" y2="449.343" style="stroke:yellow;stroke-width:1;stroke-linecap:round;opacity:1"/>
<text x="769.152" y="464.843" fill="red"> </text><text x="747.501" y="475.343" fill="orange">.</text><line x1="792.803" y1="449.343" x2="841.099" y2="436.402" style="stroke:green;stroke-width:1;stroke-linecap:round;opacity:1"/>
<text x="814.951" y="445.872" fill="red">|</text><text x="790.803" y="450.343" fill="black">.</text><line x1="719.335" y1="459.124" x2="745.217" y2="362.531" style="stroke:yellow;stroke-width:1;stroke-linecap:round;opacity:1"/>
<text x="730.276" y="413.828" fill="red">|</text><text x="717.335" y="460.124" fill="orange">.</text><line x1="725.806" y1="434.976" x2="700.806" y2="391.674" style="stroke:black;stroke-width:1;stroke-linecap:round;opacity:1"/>
<text x="711.306" y="416.325" fill="red"> </text><text x="723.806" y="435.976" fill="orange">.</text><line x1="700.806" y1="391.674" x2="687.865" y2="343.378" style="stroke:green;stroke-width:1;stroke-linecap:round;opacity:1"/>
<text x="692.335" y="370.526" fill="red">||</text><text x="698.806" y="392.674" fill="black">.</text><line x1="687.865" y1="343.378" x2="674.924" y2="295.082" style="stroke:black;stroke-width:1;stroke-linecap:round;opacity:1"/>
<text x="679.394" y="322.230" fill="red">||</text><text x="685.865" y="344.378" fill="black">.</text><line x1="738.747" y1="386.679" x2="769.185" y2="347.012" style="stroke:yellow;stroke-width:1;stroke-linecap:round;opacity:1"/>
<text x="751.966" y="369.846" fill="red"> </text><text x="736.747" y="387.679" fill="black">.</text><line x1="769.185" y1="347.012" x2="782.126" y2="298.715" style="stroke:yellow;stroke-width:1;stroke-linecap:round;opacity:1"/>
<text x="773.655" y="325.864" fill="red">|</text><text x="767.185" y="348.012" fill="orange">.</text><line x1="782.126" y1="298.715" x2="812.564" y2="259.048" style="stroke:green;stroke-width:1;stroke-linecap:round;opacity:1"/>
<text x="795.345" y="281.882" fill="red">|</text><text x="780.126" y="299.715" fill="black">.</text><line x1="745.217" y1="362.531" x2="771.099" y2="265.939" style="stroke:black;stroke-width:1;stroke-linecap:round;opacity:1"/>
<text x="756.158" y="317.235" fill="red">||</text><text x="743.217" y="363.531" fill="orange">.</text><line x1="751.688" y1="338.383" x2="716.332" y2="303.028" style="stroke:black;stroke-width:1;stroke-linecap:round;opacity:1"/>
<text x="732.010" y="323.705" fill="red">||</text><text x="749.688" y="339.383" fill="orange">.</text><line x1="716.332" y1="303.028" x2="703.391" y2="254.731" style="stroke:yellow;stroke-width:1;stroke-linecap:round;opacity:1"/>
<text x="707.862" y="281.880" fill="red">|</text><text x="714.332" y="304.028" fill="black">.</text><line x1="703.391" y1="254.731" x2="684.257" y2="208.537" style="stroke:black;stroke-width:1;stroke-linecap:round;opacity:1"/>
<text x="691.824" y="234.634" fill="red"> </text><text x="701.391" y="255.731" fill="black">.</text><line x1="764.629" y1="290.087" x2="795.067" y2="250.419" style="stroke:green;stroke-width:1;stroke-linecap:round;opacity:1"/>
<text x="777.848" y="273.253" fill="red">|</text><text x="762.629" y="291.087" fill="black">.</text><line x1="795.067" y1="250.419" x2="814.201" y2="204.225" style="stroke:yellow;stroke-width:1;stroke-linecap:round;opacity:1"/>
<text x="802.634" y="230.322" fill="red"> </text><text x="793.067" y="251.419" fill="orange">.</text><line x1="814.201" y1="204.225" x2="853.869" y2="173.787" style="stroke:yellow;stroke-width:1;stroke-linecap:round;opacity:1"/>
<text x="832.035" y="192.006" fill="red">||</text><text x="812.201" y="205.225" fill="black">.</text><line x1="640.000" y1="520.000" x2="739.144" y2="506.947" style="stroke:black;stroke-width:1;stroke-linecap:round;opacity:1"/>
<text x="687.572" y="516.474" fill="red"> </text><text x="638.000" y="521.000" fill="black">.</text><line x1="664.786" y1="516.737" x2="700.141" y2="481.381" style="stroke:black;stroke-width:1;stroke-linecap:round;opacity:1"/>
<text x="680.464" y="502.059" fill="red"> </text><text x="662.786" y="517.737" fill="black">.</text><line x1="700.141" y1="481.381" x2="735.497" y2="446.026" style="stroke:green;stroke-width:1;stroke-linecap:round;opacity:1"/>
<text x="715.819" y="466.704" fill="red">|</text><text x="698.141" y="482.381" fill="black">.</text><line x1="735.497" y1="446.026" x2="754.631" y2="399.832" style="stroke:yellow;stroke-width:1;stroke-linecap:round;opacity:1"/>
<text x="743.064" y="425.929" fill="red">|</text><text x="733.497" y="447.026" fill="orange">.</text><line x1="714.358" y1="510.211" x2="760.552" y2="529.345" style="stroke:black;stroke-width:1;stroke-linecap:round;opacity:1"/>
<text x="735.455" y="522.778" fill="red">||</text><text x="712.358" y="511.211" fill="black">.</text><line x1="760.552" y1="529.345" x2="810.125" y2="535.871" style="stroke:black;stroke-width:1;stroke-linecap:round;opacity:1"/>
<text x="783.338" y="535.608" fill="red"> </text><text x="758.552" y="530.345" fill="orange">.</text><line x1="810.125" y1="535.871" x2="853.426" y2="560.871" style="stroke:green;stroke-width:1;stroke-linecap:round;opacity:1"/>
<text x="829.775" y="551.371" fill="red">|</text><text x="808.125" y="536.871" fill="black">.</text><line x1="739.144" y1="506.947" x2="825.747" y2="456.947" style="stroke:yellow;stroke-width:1;stroke-linecap:round;opacity:1"/>
<text x="780.446" y="484.947" fill="red">|</text><text x="737.144" y="507.947" fill="orange">.</text><line x1="760.795" y1="494.447" x2="785.795" y2="451.146" style="stroke:green;stroke-width:1;stroke-linecap:round;opacity:1"/>
<text x="771.295" y="475.797" fill="red"> </text><text x="758.795" y="495.447" fill="black">.</text><line x1="785.795" y1="451.146" x2="785.795" y2="401.146" style="stroke:yellow;stroke-width:1;stroke-linecap:round;opacity:1"/>
<text x="783.795" y="429.146" fill="red">|</text><text x="783.795" y="452.146" fill="orange">.</text><line x1="785.795" y1="401.146" x2="804.929" y2="354.952" style="stroke:black;stroke-width:1;stroke-linecap:round;opacity:1"/>
<text x="793.362" y="381.049" fill="red">|</text><text x="783.795" y="402.146" fill="black">.</text><line x1="804.096" y1="469.447" x2="852.393" y2="456.506" style="stroke:black;stroke-width:1;stroke-linecap:round;opacity:1"/>
<text x="826.245" y="465.977" fill="red"> </text><text x="802.096" y="470.447" fill="orange">.</text><line x1="852.393" y1="456.506" x2="901.965" y2="463.033" style="stroke:black;stroke-width:1;stroke-linecap:round;opacity:1"/>
<text x="875.179" y="462.770" fill="red">||</text><text x="850.393" y="457.506" fill="black">.</text><line x1="901.965" y1="463.033" x2="951.537" y2="469.559" style="stroke:black;stroke-width:1;stroke-linecap:round;opacity:1"/>
<text x="924.751" y="469.296" fill="red">||</text><text x="899.965" y="464.033" fill="black">.</text><line x1="825.747" y1="456.947" x2="925.747" y2="456.947" style="stroke:black;stroke-width:1;stroke-linecap:round;opacity:1"/>
<text x="873.747" y="459.947" fill="red"> </text><text x="823.747" y="457.947" fill="black">.</text></svg>